<svg xmlns="http://www.w3.org/2000/svg" width="1920" height="1080"><path d="M-148,-249L2,-241L270,-252Z" fill="#f5fbc3" stroke="#f5fbc3" stroke-width="1.51"/><path d="M270,-252L466,-255L764,-265Z" fill="#d3edc5" stroke="#d3edc5" stroke-width="1.51"/><path d="M-148,-249L270,-252L764,-265Z" fill="#e6f5c3" stroke="#e6f5c3" stroke-width="1.51"/><path d="M764,-265L1066,-222L1204,-220Z" fill="#aad6ca" stroke="#aad6ca" stroke-width="1.51"/><path d="M845,1331L436,1344L1384,1343Z" fill="#386990" stroke="#386990" stroke-width="1.51"/><path d="M1210,1326L1039,1323L1384,1343Z" fill="#215a90" stroke="#215a90" stroke-width="1.51"/><path d="M1039,1323L845,1331L1384,1343Z" fill="#296090" stroke="#296090" stroke-width="1.51"/><path d="M1204,-220L1296,-215L1466,-221Z" fill="#a0bfc5" stroke="#a0bfc5" stroke-width="1.51"/><path d="M764,-265L1204,-220L1466,-221Z" fill="#a6cdc9" stroke="#a6cdc9" stroke-width="1.51"/><path d="M1466,-221L1595,-179L1807,-178Z" fill="#9ca4b8" stroke="#9ca4b8" stroke-width="1.51"/><path d="M1948,660L2033,714L2063,498Z" fill="#2f659b" stroke="#2f659b" stroke-width="1.51"/><path d="M764,-265L1466,-221L2099,-229Z" fill="#9fb4c2" stroke="#9fb4c2" stroke-width="1.51"/><path d="M1807,-178L1879,-170L2099,-229Z" fill="#968ea9" stroke="#968ea9" stroke-width="1.51"/><path d="M1466,-221L1807,-178L2099,-229Z" fill="#9c97b4" stroke="#9c97b4" stroke-width="1.51"/><path d="M1981,-47L2112,70L2134,-52Z" fill="#82838f" stroke="#82838f" stroke-width="1.51"/><path d="M2099,-229L1981,-47L2134,-52Z" fill="#8a8692" stroke="#8a8692" stroke-width="1.51"/><path d="M2033,714L1915,791L2135,896Z" fill="#215495" stroke="#215495" stroke-width="1.51"/><path d="M1915,791L1970,965L2135,896Z" fill="#204b93" stroke="#204b93" stroke-width="1.51"/><path d="M1970,965L2132,1042L2135,896Z" fill="#1b3e87" stroke="#1b3e87" stroke-width="1.51"/><path d="M1745,1326L1384,1343L2135,1322Z" fill="#1a327e" stroke="#1a327e" stroke-width="1.51"/><path d="M1940,1291L1745,1326L2135,1322Z" fill="#172875" stroke="#172875" stroke-width="1.51"/><path d="M2132,1042L2033,1161L2135,1322Z" fill="#192979" stroke="#192979" stroke-width="1.51"/><path d="M2033,1161L1940,1291L2135,1322Z" fill="#162773" stroke="#162773" stroke-width="1.51"/><path d="M2135,896L2132,1042L2135,1322Z" fill="#19317b" stroke="#19317b" stroke-width="1.51"/><path d="M2101,227L1917,362L2141,430Z" fill="#527494" stroke="#527494" stroke-width="1.51"/><path d="M1917,362L2063,498L2141,430Z" fill="#467097" stroke="#467097" stroke-width="1.51"/><path d="M2134,-52L2112,70L2141,430Z" fill="#6f7b8a" stroke="#6f7b8a" stroke-width="1.51"/><path d="M2112,70L2101,227L2141,430Z" fill="#60768c" stroke="#60768c" stroke-width="1.51"/><path d="M2033,714L2135,896L2141,430Z" fill="#255c91" stroke="#255c91" stroke-width="1.51"/><path d="M2063,498L2033,714L2141,430Z" fill="#326995" stroke="#326995" stroke-width="1.51"/><path d="M1953,52L2101,227L2112,70Z" fill="#788192" stroke="#788192" stroke-width="1.51"/><path d="M1970,965L2033,1161L2132,1042Z" fill="#1d3786" stroke="#1d3786" stroke-width="1.51"/><path d="M1879,-170L1981,-47L2099,-229Z" fill="#908b9f" stroke="#908b9f" stroke-width="1.51"/><path d="M1883,289L1917,362L2101,227Z" fill="#5f7b9d" stroke="#5f7b9d" stroke-width="1.51"/><path d="M1981,-47L1953,52L2112,70Z" fill="#838596" stroke="#838596" stroke-width="1.51"/><path d="M1953,52L1883,289L2101,227Z" fill="#72819b" stroke="#72819b" stroke-width="1.51"/><path d="M1970,965L1908,1123L2033,1161Z" fill="#20378c" stroke="#20378c" stroke-width="1.51"/><path d="M1919,501L1948,660L2063,498Z" fill="#376da0" stroke="#376da0" stroke-width="1.51"/><path d="M1917,362L1919,501L2063,498Z" fill="#47739f" stroke="#47739f" stroke-width="1.51"/><path d="M1948,660L1915,791L2033,714Z" fill="#285f9f" stroke="#285f9f" stroke-width="1.51"/><path d="M1908,1123L1940,1291L2033,1161Z" fill="#1d2e84" stroke="#1d2e84" stroke-width="1.51"/><path d="M1919,501L1826,541L1948,660Z" fill="#3a6fa8" stroke="#3a6fa8" stroke-width="1.51"/><path d="M1808,63L1883,289L1953,52Z" fill="#8188a5" stroke="#8188a5" stroke-width="1.51"/><path d="M1757,1022L1908,1123L1970,965Z" fill="#254098" stroke="#254098" stroke-width="1.51"/><path d="M1915,791L1809,872L1970,965Z" fill="#26519e" stroke="#26519e" stroke-width="1.51"/><path d="M1787,-51L1953,52L1981,-47Z" fill="#8e8ba1" stroke="#8e8ba1" stroke-width="1.51"/><path d="M1879,-170L1787,-51L1981,-47Z" fill="#968fa4" stroke="#968fa4" stroke-width="1.51"/><path d="M1787,-51L1808,63L1953,52Z" fill="#8e8ea7" stroke="#8e8ea7" stroke-width="1.51"/><path d="M1809,872L1757,1022L1970,965Z" fill="#264a9f" stroke="#264a9f" stroke-width="1.51"/><path d="M1808,63L1730,198L1883,289Z" fill="#7a8aa9" stroke="#7a8aa9" stroke-width="1.51"/><path d="M1908,1123L1774,1127L1940,1291Z" fill="#23338f" stroke="#23338f" stroke-width="1.51"/><path d="M1789,710L1915,791L1948,660Z" fill="#2e63a8" stroke="#2e63a8" stroke-width="1.51"/><path d="M1917,362L1793,359L1919,501Z" fill="#537aa8" stroke="#537aa8" stroke-width="1.51"/><path d="M1774,1127L1745,1326L1940,1291Z" fill="#1f3288" stroke="#1f3288" stroke-width="1.51"/><path d="M1826,541L1789,710L1948,660Z" fill="#366cab" stroke="#366cab" stroke-width="1.51"/><path d="M1685,1301L1384,1343L1745,1326Z" fill="#1a3c84" stroke="#1a3c84" stroke-width="1.51"/><path d="M1757,1022L1774,1127L1908,1123Z" fill="#263f99" stroke="#263f99" stroke-width="1.51"/><path d="M1793,359L1826,541L1919,501Z" fill="#4a78ac" stroke="#4a78ac" stroke-width="1.51"/><path d="M1883,289L1793,359L1917,362Z" fill="#5d7ea8" stroke="#5d7ea8" stroke-width="1.51"/><path d="M1789,710L1809,872L1915,791Z" fill="#2a5ea8" stroke="#2a5ea8" stroke-width="1.51"/><path d="M1807,-178L1787,-51L1879,-170Z" fill="#9993ac" stroke="#9993ac" stroke-width="1.51"/><path d="M1730,198L1793,359L1883,289Z" fill="#6885aa" stroke="#6885aa" stroke-width="1.51"/><path d="M1685,1301L1745,1326L1774,1127Z" fill="#1f378a" stroke="#1f378a" stroke-width="1.51"/><path d="M1650,1162L1685,1301L1774,1127Z" fill="#233d93" stroke="#233d93" stroke-width="1.51"/><path d="M1730,198L1654,261L1793,359Z" fill="#698bac" stroke="#698bac" stroke-width="1.51"/><path d="M1603,413L1635,527L1793,359Z" fill="#4e86b0" stroke="#4e86b0" stroke-width="1.51"/><path d="M1789,710L1655,891L1809,872Z" fill="#2860a9" stroke="#2860a9" stroke-width="1.51"/><path d="M1655,891L1757,1022L1809,872Z" fill="#2655a4" stroke="#2655a4" stroke-width="1.51"/><path d="M1674,687L1789,710L1826,541Z" fill="#3472ae" stroke="#3472ae" stroke-width="1.51"/><path d="M1635,527L1674,687L1826,541Z" fill="#387ab1" stroke="#387ab1" stroke-width="1.51"/><path d="M1793,359L1635,527L1826,541Z" fill="#487eaf" stroke="#487eaf" stroke-width="1.51"/><path d="M1595,-179L1638,-24L1787,-51Z" fill="#989eac" stroke="#989eac" stroke-width="1.51"/><path d="M1674,687L1655,891L1789,710Z" fill="#286bae" stroke="#286bae" stroke-width="1.51"/><path d="M1595,-179L1787,-51L1807,-178Z" fill="#9a9baf" stroke="#9a9baf" stroke-width="1.51"/><path d="M1582,119L1730,198L1808,63Z" fill="#8495ab" stroke="#8495ab" stroke-width="1.51"/><path d="M1638,-24L1582,119L1808,63Z" fill="#8b9aac" stroke="#8b9aac" stroke-width="1.51"/><path d="M1787,-51L1638,-24L1808,63Z" fill="#9096aa" stroke="#9096aa" stroke-width="1.51"/><path d="M1654,261L1603,413L1793,359Z" fill="#5b8aaf" stroke="#5b8aaf" stroke-width="1.51"/><path d="M1655,891L1629,994L1757,1022Z" fill="#2554a3" stroke="#2554a3" stroke-width="1.51"/><path d="M1757,1022L1650,1162L1774,1127Z" fill="#26439b" stroke="#26439b" stroke-width="1.51"/><path d="M1504,1263L1384,1343L1685,1301Z" fill="#1c438a" stroke="#1c438a" stroke-width="1.51"/><path d="M1629,994L1650,1162L1757,1022Z" fill="#264b9f" stroke="#264b9f" stroke-width="1.51"/><path d="M1532,795L1655,891L1674,687Z" fill="#256eb0" stroke="#256eb0" stroke-width="1.51"/><path d="M1582,119L1654,261L1730,198Z" fill="#7895ae" stroke="#7895ae" stroke-width="1.51"/><path d="M1595,-179L1532,-84L1638,-24Z" fill="#99a5b0" stroke="#99a5b0" stroke-width="1.51"/><path d="M1629,994L1495,1131L1650,1162Z" fill="#254ea0" stroke="#254ea0" stroke-width="1.51"/><path d="M1635,527L1497,548L1674,687Z" fill="#3582b4" stroke="#3582b4" stroke-width="1.51"/><path d="M1497,548L1515,727L1674,687Z" fill="#2d7fb5" stroke="#2d7fb5" stroke-width="1.51"/><path d="M1515,727L1532,795L1674,687Z" fill="#2577b4" stroke="#2577b4" stroke-width="1.51"/><path d="M1650,1162L1504,1263L1685,1301Z" fill="#20418f" stroke="#20418f" stroke-width="1.51"/><path d="M1452,240L1458,393L1603,413Z" fill="#5897b5" stroke="#5897b5" stroke-width="1.51"/><path d="M1520,74L1582,119L1638,-24Z" fill="#8ba1af" stroke="#8ba1af" stroke-width="1.51"/><path d="M1495,1131L1504,1263L1650,1162Z" fill="#24499a" stroke="#24499a" stroke-width="1.51"/><path d="M1452,240L1603,413L1654,261Z" fill="#6195b2" stroke="#6195b2" stroke-width="1.51"/><path d="M1582,119L1452,240L1654,261Z" fill="#759bb1" stroke="#759bb1" stroke-width="1.51"/><path d="M1464,979L1629,994L1655,891Z" fill="#235ca7" stroke="#235ca7" stroke-width="1.51"/><path d="M1532,795L1464,979L1655,891Z" fill="#2367ac" stroke="#2367ac" stroke-width="1.51"/><path d="M1464,979L1495,1131L1629,994Z" fill="#2558a5" stroke="#2558a5" stroke-width="1.51"/><path d="M1603,413L1497,548L1635,527Z" fill="#418ab5" stroke="#418ab5" stroke-width="1.51"/><path d="M1532,-84L1520,74L1638,-24Z" fill="#92a5b0" stroke="#92a5b0" stroke-width="1.51"/><path d="M1458,393L1497,548L1603,413Z" fill="#4991b6" stroke="#4991b6" stroke-width="1.51"/><path d="M1466,-221L1532,-84L1595,-179Z" fill="#9babb8" stroke="#9babb8" stroke-width="1.51"/><path d="M1520,74L1452,240L1582,119Z" fill="#81a3b2" stroke="#81a3b2" stroke-width="1.51"/><path d="M1495,1131L1372,1175L1504,1263Z" fill="#264f9d" stroke="#264f9d" stroke-width="1.51"/><path d="M1497,548L1387,738L1515,727Z" fill="#2b86b9" stroke="#2b86b9" stroke-width="1.51"/><path d="M1374,72L1452,240L1520,74Z" fill="#85abb4" stroke="#85abb4" stroke-width="1.51"/><path d="M1388,832L1464,979L1532,795Z" fill="#2370b1" stroke="#2370b1" stroke-width="1.51"/><path d="M1515,727L1387,738L1532,795Z" fill="#227db7" stroke="#227db7" stroke-width="1.51"/><path d="M1387,738L1388,832L1532,795Z" fill="#227cb7" stroke="#227cb7" stroke-width="1.51"/><path d="M1466,-221L1280,-72L1532,-84Z" fill="#9cb5b9" stroke="#9cb5b9" stroke-width="1.51"/><path d="M1280,-72L1374,72L1532,-84Z" fill="#96b4b6" stroke="#96b4b6" stroke-width="1.51"/><path d="M1374,72L1520,74L1532,-84Z" fill="#90abb3" stroke="#90abb3" stroke-width="1.51"/><path d="M1458,393L1357,501L1497,548Z" fill="#4397ba" stroke="#4397ba" stroke-width="1.51"/><path d="M1388,832L1373,960L1464,979Z" fill="#236eb0" stroke="#236eb0" stroke-width="1.51"/><path d="M1357,501L1387,738L1497,548Z" fill="#3191bc" stroke="#3191bc" stroke-width="1.51"/><path d="M1373,960L1372,1175L1464,979Z" fill="#2762ab" stroke="#2762ab" stroke-width="1.51"/><path d="M1296,-215L1280,-72L1466,-221Z" fill="#9fbcc0" stroke="#9fbcc0" stroke-width="1.51"/><path d="M1464,979L1372,1175L1495,1131Z" fill="#2859a6" stroke="#2859a6" stroke-width="1.51"/><path d="M1372,1175L1384,1343L1504,1263Z" fill="#224e94" stroke="#224e94" stroke-width="1.51"/><path d="M1374,72L1280,235L1452,240Z" fill="#7baeb8" stroke="#7baeb8" stroke-width="1.51"/><path d="M1280,235L1312,415L1452,240Z" fill="#63a9ba" stroke="#63a9ba" stroke-width="1.51"/><path d="M1452,240L1312,415L1458,393Z" fill="#58a0b9" stroke="#58a0b9" stroke-width="1.51"/><path d="M1312,415L1357,501L1458,393Z" fill="#4b9ebc" stroke="#4b9ebc" stroke-width="1.51"/><path d="M1176,1023L1185,1189L1372,1175Z" fill="#2d66ac" stroke="#2d66ac" stroke-width="1.51"/><path d="M1185,1189L1210,1326L1372,1175Z" fill="#265e9f" stroke="#265e9f" stroke-width="1.51"/><path d="M1176,1023L1372,1175L1373,960Z" fill="#2869ad" stroke="#2869ad" stroke-width="1.51"/><path d="M1372,1175L1210,1326L1384,1343Z" fill="#215595" stroke="#215595" stroke-width="1.51"/><path d="M1357,501L1201,676L1387,738Z" fill="#2b95bf" stroke="#2b95bf" stroke-width="1.51"/><path d="M1201,676L1201,891L1387,738Z" fill="#1e8dbe" stroke="#1e8dbe" stroke-width="1.51"/><path d="M1387,738L1201,891L1388,832Z" fill="#2282b9" stroke="#2282b9" stroke-width="1.51"/><path d="M1201,891L1373,960L1388,832Z" fill="#2379b5" stroke="#2379b5" stroke-width="1.51"/><path d="M1159,117L1280,235L1374,72Z" fill="#84babb" stroke="#84babb" stroke-width="1.51"/><path d="M1144,513L1201,676L1357,501Z" fill="#32a3c2" stroke="#32a3c2" stroke-width="1.51"/><path d="M1280,-72L1159,117L1374,72Z" fill="#91bdbb" stroke="#91bdbb" stroke-width="1.51"/><path d="M1201,891L1176,1023L1373,960Z" fill="#2477b4" stroke="#2477b4" stroke-width="1.51"/><path d="M1222,245L1181,362L1280,235Z" fill="#68b4bd" stroke="#68b4bd" stroke-width="1.51"/><path d="M1280,235L1181,362L1312,415Z" fill="#5aaebe" stroke="#5aaebe" stroke-width="1.51"/><path d="M1312,415L1144,513L1357,501Z" fill="#42a6c0" stroke="#42a6c0" stroke-width="1.51"/><path d="M1222,-87L1159,117L1280,-72Z" fill="#97c3bb" stroke="#97c3bb" stroke-width="1.51"/><path d="M1159,117L1222,245L1280,235Z" fill="#7ababd" stroke="#7ababd" stroke-width="1.51"/><path d="M1222,-87L1280,-72L1296,-215Z" fill="#9ec3bf" stroke="#9ec3bf" stroke-width="1.51"/><path d="M1204,-220L1222,-87L1296,-215Z" fill="#a0c5c3" stroke="#a0c5c3" stroke-width="1.51"/><path d="M1181,362L1144,513L1312,415Z" fill="#4cacc0" stroke="#4cacc0" stroke-width="1.51"/><path d="M1057,-70L1062,110L1159,117Z" fill="#94c9bc" stroke="#94c9bc" stroke-width="1.51"/><path d="M1176,1023L1032,1153L1185,1189Z" fill="#346ead" stroke="#346ead" stroke-width="1.51"/><path d="M1054,946L1176,1023L1201,891Z" fill="#2c7eb5" stroke="#2c7eb5" stroke-width="1.51"/><path d="M1077,855L1201,891L1201,676Z" fill="#288fbd" stroke="#288fbd" stroke-width="1.51"/><path d="M1185,1189L1039,1323L1210,1326Z" fill="#2a6098" stroke="#2a6098" stroke-width="1.51"/><path d="M1051,261L1181,362L1222,245Z" fill="#69b8be" stroke="#69b8be" stroke-width="1.51"/><path d="M1159,117L1051,261L1222,245Z" fill="#7bbebd" stroke="#7bbebd" stroke-width="1.51"/><path d="M1057,-70L1159,117L1222,-87Z" fill="#99c8bb" stroke="#99c8bb" stroke-width="1.51"/><path d="M1204,-220L1066,-222L1222,-87Z" fill="#a3cbc4" stroke="#a3cbc4" stroke-width="1.51"/><path d="M1066,-222L1057,-70L1222,-87Z" fill="#a3cdbf" stroke="#a3cdbf" stroke-width="1.51"/><path d="M1144,513L986,641L1201,676Z" fill="#36a6c3" stroke="#36a6c3" stroke-width="1.51"/><path d="M986,641L1077,855L1201,676Z" fill="#2d9dc1" stroke="#2d9dc1" stroke-width="1.51"/><path d="M1077,855L1054,946L1201,891Z" fill="#2e87b8" stroke="#2e87b8" stroke-width="1.51"/><path d="M1062,110L1051,261L1159,117Z" fill="#85c4bc" stroke="#85c4bc" stroke-width="1.51"/><path d="M1011,373L1144,513L1181,362Z" fill="#52b3c1" stroke="#52b3c1" stroke-width="1.51"/><path d="M1032,1153L1039,1323L1185,1189Z" fill="#3268a1" stroke="#3268a1" stroke-width="1.51"/><path d="M1051,261L1011,373L1181,362Z" fill="#61babf" stroke="#61babf" stroke-width="1.51"/><path d="M1054,946L1032,1153L1176,1023Z" fill="#3478b1" stroke="#3478b1" stroke-width="1.51"/><path d="M1011,373L994,506L1144,513Z" fill="#4cb4c2" stroke="#4cb4c2" stroke-width="1.51"/><path d="M994,506L986,641L1144,513Z" fill="#3db0c4" stroke="#3db0c4" stroke-width="1.51"/><path d="M764,-265L878,-184L1066,-222Z" fill="#afdbc8" stroke="#afdbc8" stroke-width="1.51"/><path d="M986,641L926,724L1077,855Z" fill="#31a1c2" stroke="#31a1c2" stroke-width="1.51"/><path d="M892,933L831,1093L1032,1153Z" fill="#417fb1" stroke="#417fb1" stroke-width="1.51"/><path d="M892,933L1032,1153L1054,946Z" fill="#3881b3" stroke="#3881b3" stroke-width="1.51"/><path d="M1057,-70L873,140L1062,110Z" fill="#96cfbc" stroke="#96cfbc" stroke-width="1.51"/><path d="M873,140L1051,261L1062,110Z" fill="#86cabe" stroke="#86cabe" stroke-width="1.51"/><path d="M878,-184L1057,-70L1066,-222Z" fill="#a7d5c3" stroke="#a7d5c3" stroke-width="1.51"/><path d="M926,724L859,847L1077,855Z" fill="#369bbf" stroke="#369bbf" stroke-width="1.51"/><path d="M892,933L1054,946L1077,855Z" fill="#348bb8" stroke="#348bb8" stroke-width="1.51"/><path d="M859,847L892,933L1077,855Z" fill="#3993bb" stroke="#3993bb" stroke-width="1.51"/><path d="M937,575L986,641L994,506Z" fill="#3fb2c4" stroke="#3fb2c4" stroke-width="1.51"/><path d="M1032,1153L845,1331L1039,1323Z" fill="#356b9b" stroke="#356b9b" stroke-width="1.51"/><path d="M834,-110L873,140L1057,-70Z" fill="#a2d6bb" stroke="#a2d6bb" stroke-width="1.51"/><path d="M873,140L835,212L1051,261Z" fill="#84ccbd" stroke="#84ccbd" stroke-width="1.51"/><path d="M878,-184L834,-110L1057,-70Z" fill="#aad9bf" stroke="#aad9bf" stroke-width="1.51"/><path d="M835,212L1011,373L1051,261Z" fill="#70c4bf" stroke="#70c4bf" stroke-width="1.51"/><path d="M771,1184L845,1331L1032,1153Z" fill="#4272a2" stroke="#4272a2" stroke-width="1.51"/><path d="M831,1093L771,1184L1032,1153Z" fill="#4878ac" stroke="#4878ac" stroke-width="1.51"/><path d="M310,1318L90,1320L436,1344Z" fill="#797f8d" stroke="#797f8d" stroke-width="1.51"/><path d="M841,432L994,506L1011,373Z" fill="#55bcc2" stroke="#55bcc2" stroke-width="1.51"/><path d="M835,212L841,432L1011,373Z" fill="#6ac3bf" stroke="#6ac3bf" stroke-width="1.51"/><path d="M634,1271L436,1344L845,1331Z" fill="#537391" stroke="#537391" stroke-width="1.51"/><path d="M841,432L937,575L994,506Z" fill="#4db9c3" stroke="#4db9c3" stroke-width="1.51"/><path d="M834,-110L781,111L873,140Z" fill="#a2d7ba" stroke="#a2d7ba" stroke-width="1.51"/><path d="M937,575L926,724L986,641Z" fill="#3cadc3" stroke="#3cadc3" stroke-width="1.51"/><path d="M751,1284L634,1271L845,1331Z" fill="#4b7295" stroke="#4b7295" stroke-width="1.51"/><path d="M841,432L740,560L937,575Z" fill="#54bbc2" stroke="#54bbc2" stroke-width="1.51"/><path d="M723,653L926,724L937,575Z" fill="#48afc2" stroke="#48afc2" stroke-width="1.51"/><path d="M740,560L723,653L937,575Z" fill="#53b7c1" stroke="#53b7c1" stroke-width="1.51"/><path d="M723,653L859,847L926,724Z" fill="#46a8c0" stroke="#46a8c0" stroke-width="1.51"/><path d="M689,-24L781,111L834,-110Z" fill="#abdcb9" stroke="#abdcb9" stroke-width="1.51"/><path d="M835,212L718,212L841,432Z" fill="#7ecbbc" stroke="#7ecbbc" stroke-width="1.51"/><path d="M718,212L705,436L841,432Z" fill="#74c8bd" stroke="#74c8bd" stroke-width="1.51"/><path d="M771,1184L751,1284L845,1331Z" fill="#48729a" stroke="#48729a" stroke-width="1.51"/><path d="M723,653L689,851L859,847Z" fill="#50a6bd" stroke="#50a6bd" stroke-width="1.51"/><path d="M859,847L735,1012L892,933Z" fill="#4990b6" stroke="#4990b6" stroke-width="1.51"/><path d="M735,1012L831,1093L892,933Z" fill="#4c88b2" stroke="#4c88b2" stroke-width="1.51"/><path d="M689,851L735,1012L859,847Z" fill="#5196b7" stroke="#5196b7" stroke-width="1.51"/><path d="M764,-265L834,-110L878,-184Z" fill="#b3dec3" stroke="#b3dec3" stroke-width="1.51"/><path d="M781,111L835,212L873,140Z" fill="#94d2bb" stroke="#94d2bb" stroke-width="1.51"/><path d="M705,436L740,560L841,432Z" fill="#63c1c0" stroke="#63c1c0" stroke-width="1.51"/><path d="M764,-265L611,-164L834,-110Z" fill="#b9e1c1" stroke="#b9e1c1" stroke-width="1.51"/><path d="M781,111L718,212L835,212Z" fill="#94d3bb" stroke="#94d3bb" stroke-width="1.51"/><path d="M611,-164L689,-24L834,-110Z" fill="#b7e1ba" stroke="#b7e1ba" stroke-width="1.51"/><path d="M735,1012L771,1184L831,1093Z" fill="#5180ad" stroke="#5180ad" stroke-width="1.51"/><path d="M605,273L705,436L718,212Z" fill="#83cebb" stroke="#83cebb" stroke-width="1.51"/><path d="M735,1012L544,1114L771,1184Z" fill="#5b82ac" stroke="#5b82ac" stroke-width="1.51"/><path d="M541,38L718,212L781,111Z" fill="#a4dab8" stroke="#a4dab8" stroke-width="1.51"/><path d="M689,-24L541,38L781,111Z" fill="#adddb7" stroke="#adddb7" stroke-width="1.51"/><path d="M565,709L689,851L723,653Z" fill="#5bafbe" stroke="#5bafbe" stroke-width="1.51"/><path d="M705,436L640,494L740,560Z" fill="#67c2bf" stroke="#67c2bf" stroke-width="1.51"/><path d="M466,-255L611,-164L764,-265Z" fill="#c5e7c4" stroke="#c5e7c4" stroke-width="1.51"/><path d="M544,1114L634,1271L771,1184Z" fill="#5d7ca4" stroke="#5d7ca4" stroke-width="1.51"/><path d="M634,1271L751,1284L771,1184Z" fill="#51759c" stroke="#51759c" stroke-width="1.51"/><path d="M565,709L590,824L689,851Z" fill="#62aabb" stroke="#62aabb" stroke-width="1.51"/><path d="M689,851L585,935L735,1012Z" fill="#5a96b3" stroke="#5a96b3" stroke-width="1.51"/><path d="M605,273L550,380L705,436Z" fill="#81cdbb" stroke="#81cdbb" stroke-width="1.51"/><path d="M640,494L723,653L740,560Z" fill="#5fbdc0" stroke="#5fbdc0" stroke-width="1.51"/><path d="M541,38L605,273L718,212Z" fill="#a1dab8" stroke="#a1dab8" stroke-width="1.51"/><path d="M585,935L544,1114L735,1012Z" fill="#618eaf" stroke="#618eaf" stroke-width="1.51"/><path d="M640,494L565,709L723,653Z" fill="#64bbbf" stroke="#64bbbf" stroke-width="1.51"/><path d="M611,-164L547,-115L689,-24Z" fill="#c0e5b8" stroke="#c0e5b8" stroke-width="1.51"/><path d="M550,380L640,494L705,436Z" fill="#77c8bd" stroke="#77c8bd" stroke-width="1.51"/><path d="M478,538L565,709L640,494Z" fill="#72c2be" stroke="#72c2be" stroke-width="1.51"/><path d="M547,-115L541,38L689,-24Z" fill="#bde4b6" stroke="#bde4b6" stroke-width="1.51"/><path d="M590,824L585,935L689,851Z" fill="#61a0b7" stroke="#61a0b7" stroke-width="1.51"/><path d="M462,54L428,235L541,38Z" fill="#bce4b6" stroke="#bce4b6" stroke-width="1.51"/><path d="M541,38L428,235L605,273Z" fill="#acdeb7" stroke="#acdeb7" stroke-width="1.51"/><path d="M544,1114L488,1145L634,1271Z" fill="#6a81a6" stroke="#6a81a6" stroke-width="1.51"/><path d="M550,380L478,538L640,494Z" fill="#7dcabd" stroke="#7dcabd" stroke-width="1.51"/><path d="M488,1145L436,1344L634,1271Z" fill="#687c99" stroke="#687c99" stroke-width="1.51"/><path d="M386,976L544,1114L585,935Z" fill="#7194af" stroke="#7194af" stroke-width="1.51"/><path d="M466,-255L547,-115L611,-164Z" fill="#cbeabe" stroke="#cbeabe" stroke-width="1.51"/><path d="M428,235L550,380L605,273Z" fill="#98d5b9" stroke="#98d5b9" stroke-width="1.51"/><path d="M428,-21L541,38L547,-115Z" fill="#c6e8b5" stroke="#c6e8b5" stroke-width="1.51"/><path d="M478,538L389,649L565,709Z" fill="#7cc1bd" stroke="#7cc1bd" stroke-width="1.51"/><path d="M378,818L386,976L585,935Z" fill="#79a2b3" stroke="#79a2b3" stroke-width="1.51"/><path d="M378,818L585,935L590,824Z" fill="#70a6b7" stroke="#70a6b7" stroke-width="1.51"/><path d="M565,709L378,818L590,824Z" fill="#72b0bb" stroke="#72b0bb" stroke-width="1.51"/><path d="M386,976L488,1145L544,1114Z" fill="#768eab" stroke="#768eab" stroke-width="1.51"/><path d="M394,397L478,538L550,380Z" fill="#8ccfbc" stroke="#8ccfbc" stroke-width="1.51"/><path d="M428,235L394,397L550,380Z" fill="#99d6b9" stroke="#99d6b9" stroke-width="1.51"/><path d="M389,649L378,818L565,709Z" fill="#7cbabc" stroke="#7cbabc" stroke-width="1.51"/><path d="M428,-21L462,54L541,38Z" fill="#c4e7b5" stroke="#c4e7b5" stroke-width="1.51"/><path d="M466,-255L428,-21L547,-115Z" fill="#d0ecb9" stroke="#d0ecb9" stroke-width="1.51"/><path d="M270,-252L262,-26L428,-21Z" fill="#def2b5" stroke="#def2b5" stroke-width="1.51"/><path d="M278,81L428,235L462,54Z" fill="#c5e7b5" stroke="#c5e7b5" stroke-width="1.51"/><path d="M270,-252L428,-21L466,-255Z" fill="#dcf1bc" stroke="#dcf1bc" stroke-width="1.51"/><path d="M386,976L260,1130L488,1145Z" fill="#8191aa" stroke="#8191aa" stroke-width="1.51"/><path d="M310,1318L436,1344L488,1145Z" fill="#737f96" stroke="#737f96" stroke-width="1.51"/><path d="M260,1130L310,1318L488,1145Z" fill="#8087a0" stroke="#8087a0" stroke-width="1.51"/><path d="M278,81L327,238L428,235Z" fill="#bfe5b5" stroke="#bfe5b5" stroke-width="1.51"/><path d="M394,397L299,570L478,538Z" fill="#90d0bc" stroke="#90d0bc" stroke-width="1.51"/><path d="M299,570L389,649L478,538Z" fill="#8acabd" stroke="#8acabd" stroke-width="1.51"/><path d="M327,238L394,397L428,235Z" fill="#aaddb8" stroke="#aaddb8" stroke-width="1.51"/><path d="M428,-21L278,81L462,54Z" fill="#cdebb4" stroke="#cdebb4" stroke-width="1.51"/><path d="M378,818L265,950L386,976Z" fill="#85a6b2" stroke="#85a6b2" stroke-width="1.51"/><path d="M266,795L378,818L389,649Z" fill="#88bbbb" stroke="#88bbbb" stroke-width="1.51"/><path d="M262,-26L278,81L428,-21Z" fill="#d5eeb3" stroke="#d5eeb3" stroke-width="1.51"/><path d="M266,795L265,950L378,818Z" fill="#89afb5" stroke="#89afb5" stroke-width="1.51"/><path d="M265,950L260,1130L386,976Z" fill="#889aad" stroke="#889aad" stroke-width="1.51"/><path d="M234,701L266,795L389,649Z" fill="#8dc0bb" stroke="#8dc0bb" stroke-width="1.51"/><path d="M327,238L236,340L394,397Z" fill="#a9dcb8" stroke="#a9dcb8" stroke-width="1.51"/><path d="M236,340L299,570L394,397Z" fill="#9fd7ba" stroke="#9fd7ba" stroke-width="1.51"/><path d="M299,570L234,701L389,649Z" fill="#8fc7bc" stroke="#8fc7bc" stroke-width="1.51"/><path d="M2,-241L157,-205L270,-252Z" fill="#eff9c0" stroke="#eff9c0" stroke-width="1.51"/><path d="M157,-205L262,-26L270,-252Z" fill="#e6f6ba" stroke="#e6f6ba" stroke-width="1.51"/><path d="M236,340L100,487L299,570Z" fill="#a2d7bb" stroke="#a2d7bb" stroke-width="1.51"/><path d="M260,1130L165,1187L310,1318Z" fill="#86889e" stroke="#86889e" stroke-width="1.51"/><path d="M189,283L236,340L327,238Z" fill="#b4e0b7" stroke="#b4e0b7" stroke-width="1.51"/><path d="M278,81L167,129L327,238Z" fill="#caeab4" stroke="#caeab4" stroke-width="1.51"/><path d="M167,129L189,283L327,238Z" fill="#c2e6b5" stroke="#c2e6b5" stroke-width="1.51"/><path d="M171,341L100,487L236,340Z" fill="#adddb8" stroke="#adddb8" stroke-width="1.51"/><path d="M157,-205L131,-42L262,-26Z" fill="#e6f5b3" stroke="#e6f5b3" stroke-width="1.51"/><path d="M165,1187L90,1320L310,1318Z" fill="#838594" stroke="#838594" stroke-width="1.51"/><path d="M133,941L260,1130L265,950Z" fill="#8d9dae" stroke="#8d9dae" stroke-width="1.51"/><path d="M116,855L265,950L266,795Z" fill="#90afb5" stroke="#90afb5" stroke-width="1.51"/><path d="M100,487L234,701L299,570Z" fill="#99cebc" stroke="#99cebc" stroke-width="1.51"/><path d="M100,487L85,707L234,701Z" fill="#9cccbb" stroke="#9cccbb" stroke-width="1.51"/><path d="M133,941L165,1187L260,1130Z" fill="#8f95a9" stroke="#8f95a9" stroke-width="1.51"/><path d="M131,-42L167,129L262,-26Z" fill="#dcf1b2" stroke="#dcf1b2" stroke-width="1.51"/><path d="M116,855L133,941L265,950Z" fill="#92a9b1" stroke="#92a9b1" stroke-width="1.51"/><path d="M262,-26L167,129L278,81Z" fill="#d5efb3" stroke="#d5efb3" stroke-width="1.51"/><path d="M234,701L116,855L266,795Z" fill="#92bbb9" stroke="#92bbb9" stroke-width="1.51"/><path d="M85,707L116,855L234,701Z" fill="#96c0ba" stroke="#96c0ba" stroke-width="1.51"/><path d="M189,283L171,341L236,340Z" fill="#b3e0b7" stroke="#b3e0b7" stroke-width="1.51"/><path d="M133,941L-37,1146L165,1187Z" fill="#9697a9" stroke="#9697a9" stroke-width="1.51"/><path d="M131,-42L11,74L167,129Z" fill="#dff2b2" stroke="#dff2b2" stroke-width="1.51"/><path d="M19,433L100,487L171,341Z" fill="#afdcb9" stroke="#afdcb9" stroke-width="1.51"/><path d="M-50,211L171,341L189,283Z" fill="#c0e5b5" stroke="#c0e5b5" stroke-width="1.51"/><path d="M167,129L-50,211L189,283Z" fill="#cbeab4" stroke="#cbeab4" stroke-width="1.51"/><path d="M13,499L85,707L100,487Z" fill="#a4d4bc" stroke="#a4d4bc" stroke-width="1.51"/><path d="M-38,952L-37,1146L133,941Z" fill="#99a1af" stroke="#99a1af" stroke-width="1.51"/><path d="M-10,-59L131,-42L157,-205Z" fill="#ecf8b3" stroke="#ecf8b3" stroke-width="1.51"/><path d="M2,-241L-10,-59L157,-205Z" fill="#f2faba" stroke="#f2faba" stroke-width="1.51"/><path d="M11,74L-50,211L167,129Z" fill="#d9f0b4" stroke="#d9f0b4" stroke-width="1.51"/><path d="M-50,211L19,433L171,341Z" fill="#bbe3b7" stroke="#bbe3b7" stroke-width="1.51"/><path d="M-45,1264L90,1320L165,1187Z" fill="#8d8997" stroke="#8d8997" stroke-width="1.51"/><path d="M-37,1146L-45,1264L165,1187Z" fill="#948da2" stroke="#948da2" stroke-width="1.51"/><path d="M-45,1264L-136,1286L90,1320Z" fill="#8c8797" stroke="#8c8797" stroke-width="1.51"/><path d="M85,707L-24,790L116,855Z" fill="#9cbdb9" stroke="#9cbdb9" stroke-width="1.51"/><path d="M-10,-59L11,74L131,-42Z" fill="#e7f6b3" stroke="#e7f6b3" stroke-width="1.51"/><path d="M116,855L-38,952L133,941Z" fill="#99abb1" stroke="#99abb1" stroke-width="1.51"/><path d="M13,499L-45,738L85,707Z" fill="#a2ccbe" stroke="#a2ccbe" stroke-width="1.51"/><path d="M-24,790L-38,952L116,855Z" fill="#9bb3b7" stroke="#9bb3b7" stroke-width="1.51"/><path d="M19,433L13,499L100,487Z" fill="#addabb" stroke="#addabb" stroke-width="1.51"/><path d="M-45,738L-24,790L85,707Z" fill="#9ec3be" stroke="#9ec3be" stroke-width="1.51"/><path d="M-197,294L-164,419L-50,211Z" fill="#c3e7c3" stroke="#c3e7c3" stroke-width="1.51"/><path d="M-38,952L-114,974L-37,1146Z" fill="#9ba1b3" stroke="#9ba1b3" stroke-width="1.51"/><path d="M-148,-249L-10,-59L2,-241Z" fill="#f5fcc3" stroke="#f5fcc3" stroke-width="1.51"/><path d="M-10,-59L-137,39L11,74Z" fill="#e7f6b8" stroke="#e7f6b8" stroke-width="1.51"/><path d="M-137,39L-50,211L11,74Z" fill="#e0f3ba" stroke="#e0f3ba" stroke-width="1.51"/><path d="M-145,518L-45,738L13,499Z" fill="#a6d4c3" stroke="#a6d4c3" stroke-width="1.51"/><path d="M-50,211L-164,419L19,433Z" fill="#bbe3bf" stroke="#bbe3bf" stroke-width="1.51"/><path d="M-145,518L13,499L19,433Z" fill="#aedbc1" stroke="#aedbc1" stroke-width="1.51"/><path d="M-164,419L-145,518L19,433Z" fill="#b2ddc3" stroke="#b2ddc3" stroke-width="1.51"/><path d="M-176,891L-38,952L-24,790Z" fill="#9db2bc" stroke="#9db2bc" stroke-width="1.51"/><path d="M-148,-249L-208,-63L-10,-59Z" fill="#f5fbc2" stroke="#f5fbc2" stroke-width="1.51"/><path d="M-145,518L-215,745L-45,738Z" fill="#a5cdc8" stroke="#a5cdc8" stroke-width="1.51"/><path d="M-114,974L-209,1086L-37,1146Z" fill="#9c9cb5" stroke="#9c9cb5" stroke-width="1.51"/><path d="M-208,-63L-137,39L-10,-59Z" fill="#eef8bd" stroke="#eef8bd" stroke-width="1.51"/><path d="M-176,891L-114,974L-38,952Z" fill="#9caabb" stroke="#9caabb" stroke-width="1.51"/><path d="M-136,1286L-45,1264L-37,1146Z" fill="#928ca3" stroke="#928ca3" stroke-width="1.51"/><path d="M-45,738L-176,891L-24,790Z" fill="#9fbcc0" stroke="#9fbcc0" stroke-width="1.51"/><path d="M-215,745L-176,891L-45,738Z" fill="#a0bfc5" stroke="#a0bfc5" stroke-width="1.51"/><path d="M-209,1086L-136,1286L-37,1146Z" fill="#9990af" stroke="#9990af" stroke-width="1.51"/><path d="M-137,39L-197,294L-50,211Z" fill="#d7efc0" stroke="#d7efc0" stroke-width="1.51"/><path d="M-176,891L-209,1086L-114,974Z" fill="#9da6bc" stroke="#9da6bc" stroke-width="1.51"/><path d="M-208,-63L-197,294L-137,39Z" fill="#e5f5c2" stroke="#e5f5c2" stroke-width="1.51"/><path d="M-164,419L-215,745L-145,518Z" fill="#aad7cb" stroke="#aad7cb" stroke-width="1.51"/><path d="M-197,294L-215,745L-164,419Z" fill="#b1ddcb" stroke="#b1ddcb" stroke-width="1.51"/><path d="M-215,745L-209,1086L-176,891Z" fill="#9fb0c2" stroke="#9fb0c2" stroke-width="1.51"/><path d="M-208,-63L-215,745L-197,294Z" fill="#c2e6c8" stroke="#c2e6c8" stroke-width="1.51"/></svg>